<svg width="110" height="110" viewBox="0 0 110 110" fill="none" xmlns="http://www.w3.org/2000/svg">
<rect width="110" height="110" rx="10" fill="#736B60"/>
<path d="M27 75.04H57V81.1H27V75.04ZM86.34 69.04C84.94 69.4 83.12 69.76 80.88 70.12C78.64 70.52 76.18 70.72 73.5 70.72C70.98 70.72 68.86 70.36 67.14 69.64C65.46 68.92 64.1 67.92 63.06 66.64C62.06 65.36 61.34 63.84 60.9 62.08C60.46 60.28 60.24 58.32 60.24 56.2V38.62H67.5V55.06C67.5 58.42 67.98 60.82 68.94 62.26C69.94 63.7 71.66 64.42 74.1 64.42C74.98 64.42 75.9 64.38 76.86 64.3C77.86 64.22 78.6 64.12 79.08 64V38.62H86.34V69.04Z" fill="#FBB000"/>
</svg>
